<?xml version="1.0" encoding="UTF-8" standalone="no"?>
<!-- Created with Inkscape (http://www.inkscape.org/) -->

<svg
   xmlns:dc="http://purl.org/dc/elements/1.1/"
   xmlns:cc="http://creativecommons.org/ns#"
   xmlns:rdf="http://www.w3.org/1999/02/22-rdf-syntax-ns#"
   xmlns:svg="http://www.w3.org/2000/svg"
   xmlns="http://www.w3.org/2000/svg"
   xmlns:sodipodi="http://sodipodi.sourceforge.net/DTD/sodipodi-0.dtd"
   xmlns:inkscape="http://www.inkscape.org/namespaces/inkscape"
   width="120.12083mm"
   height="120.07809mm"
   viewBox="0 0 120.12083 120.07809"
   version="1.1"
   id="svg8"
   inkscape:version="0.92.1 r"
   sodipodi:docname="icon.svg">
  <defs
     id="defs2" />
  <sodipodi:namedview
     id="base"
     pagecolor="#ffffff"
     bordercolor="#666666"
     borderopacity="1.0"
     inkscape:pageopacity="0.0"
     inkscape:pageshadow="2"
     inkscape:zoom="0.98994949"
     inkscape:cx="226.47316"
     inkscape:cy="259.46598"
     inkscape:document-units="mm"
     inkscape:current-layer="layer1"
     showgrid="false"
     inkscape:window-width="1154"
     inkscape:window-height="770"
     inkscape:window-x="0"
     inkscape:window-y="27"
     inkscape:window-maximized="0" />
  <metadata
     id="metadata5">
    <rdf:RDF>
      <cc:Work
         rdf:about="">
        <dc:format>image/svg+xml</dc:format>
        <dc:type
           rdf:resource="http://purl.org/dc/dcmitype/StillImage" />
        <dc:title />
      </cc:Work>
    </rdf:RDF>
  </metadata>
  <g
     inkscape:label="Calque 1"
     inkscape:groupmode="layer"
     id="layer1"
     transform="translate(-45.492786,-66.480835)">
    <path
       style="fill:#000000;stroke-width:0.26458332"
       d="m 85.363196,186.19608 c -3.46631,-0.95291 -3.27309,-0.78395 -20.38788,-17.82856 -10.14232,-10.10074 -16.48587,-16.61852 -17.13567,-17.60631 -1.51846,-2.30828 -2.13534,-4.50726 -2.15785,-7.692 -0.0312,-4.41887 1.53147,-8.24416 4.83055,-11.82452 l 1.82763,-1.98347 -1.46587,-1.43038 c -3.68487,-3.59564 -5.38132,-7.27094 -5.38132,-11.65846 0,-1.32543 0.18724,-3.12175 0.41915,-4.02123 0.94436,-3.66271 1.05066,-3.78817 15.57018,-18.375482 8.97386,-9.01575 14.00043,-13.872977 14.96692,-14.462667 4.54254,-2.771588 10.02018,-2.95983 14.78488,-0.508088 1.23389,0.634911 2.25182,1.126144 2.26209,1.09163 0.0103,-0.03451 0.53682,-1.107589 1.17013,-2.384609 1.9788,-3.990049 6.072044,-7.792547 10.290234,-9.559305 2.56812,-1.075641 4.6912,-1.47254 7.87287,-1.471793 3.86328,9e-4 6.05637,0.49605 9.30358,2.100501 3.1533,1.558054 6.20747,4.226974 8.01911,7.007583 0.96514,1.481356 1.25154,1.738795 2.08454,1.873789 8.24085,1.335482 14.10916,5.504363 17.51048,12.439528 1.02765,2.095339 2.0999,5.627222 2.11706,6.973353 0.008,0.597587 0.30389,0.827047 2.31511,1.793067 7.15209,3.435273 11.43449,10.353093 11.43449,18.471383 0,5.0186 -1.39199,9.03858 -4.4671,12.9007 -3.46374,4.35021 -8.12854,6.8901 -13.97127,7.60708 l -2.33142,0.2861 -23.01875,22.96019 c -22.137834,22.08152 -23.094684,22.99733 -25.003124,23.93046 -1.0914,0.53365 -2.694,1.14989 -3.56132,1.36943 -1.91872,0.48568 -6.13427,0.48679 -7.89743,0.002 z m 7.7764,-7.91408 c 1.24008,-0.61048 5.03704,-4.28732 23.668894,-22.92017 12.20552,-12.20617 22.13742,-22.22763 22.07089,-22.26992 -0.0665,-0.0423 -0.9453,-0.49359 -1.9528,-1.00291 -1.75442,-0.88691 -4.58034,-3.31395 -5.54125,-4.7591 l -0.43755,-0.65805 -18.85421,18.85282 -18.854204,18.85282 -1.31221,-1.33225 -1.31222,-1.33225 19.284664,-19.28602 19.28466,-19.28601 -0.43845,-1.56261 c -0.24115,-0.85943 -0.43845,-1.81729 -0.43845,-2.12857 0,-0.45005 -0.20322,-0.59774 -0.99218,-0.72107 -2.25339,-0.35224 -4.54129,-1.07306 -6.32276,-1.99202 l -1.89098,-0.97546 -18.61229,18.6137 -18.612304,18.6137 -1.32292,-1.32291 -1.32291,-1.32292 18.48381,-18.48522 18.483814,-18.48522 -1.25736,-1.5437 c -1.41994,-1.7433 -3.17135,-5.16688 -3.43176,-6.70825 -0.16441,-0.97313 -0.23836,-1.03992 -1.41127,-1.27451 l -1.23776,-0.24757 -19.111474,19.06863 -19.11148,19.06863 -1.33224,-1.31221 -1.33224,-1.3122 18.3932,-18.39461 c 10.11625,-10.11703 18.393194,-18.48053 18.393194,-18.58554 0,-0.10502 -0.32742,-0.36063 -0.72761,-0.56802 -1.27551,-0.66104 -3.23357,-2.564313 -4.356814,-4.234903 -0.59881,-0.890625 -3.23955,-3.796863 -5.86829,-6.458304 -5.53254,-5.601372 -6.51832,-6.255798 -9.40193,-6.241627 -3.31415,0.01628 -3.00463,-0.236753 -17.53299,14.333581 -12.32258,12.358183 -13.14117,13.237143 -13.57532,14.576533 -0.63214,1.95023 -0.43187,4.29987 0.51473,6.03909 0.42722,0.78496 2.39123,2.98436 4.91783,5.50726 l 4.20654,4.20038 -4.10301,4.17394 c -4.6227,4.70262 -5.42805,5.97696 -5.6202,8.89301 -0.23589,3.57983 -1.22728,2.36409 16.19674,19.86197 12.23227,12.28412 15.92703,15.84604 16.96178,16.35195 1.82525,0.8924 4.61712,0.7753 6.76869,-0.28389 z m -28.72874,-58.36347 -3.9647,-3.97132 11.90295,-11.90516 11.90295,-11.905155 3.96912,3.969117 3.96911,3.969128 -11.90736,11.90736 -11.90736,11.90736 z m 83.740254,10.03123 c 3.31294,-0.763 7.04545,-3.66365 8.54849,-6.64329 2.67603,-5.30499 1.76165,-11.3176 -2.34923,-15.44762 -2.39823,-2.40939 -5.6553,-3.80578 -8.89277,-3.81254 l -1.50288,-0.003 0.2509,-0.8599 c 0.35847,-1.22857 0.32906,-5.431353 -0.0487,-6.965816 -1.46284,-5.94144 -6.29876,-10.284221 -12.49215,-11.218283 -1.86323,-0.281004 -2.83715,-0.251382 -4.96315,0.150958 -0.62915,0.119066 -0.70288,0.0284 -0.99065,-1.218295 -0.76875,-3.330391 -3.6476,-7.067439 -6.59502,-8.561009 -5.36721,-2.71977 -11.64352,-1.661367 -15.66949,2.642421 -4.953984,5.295814 -4.850074,13.209912 0.24027,18.300255 2.48894,2.488946 5.51714,3.741559 9.07639,3.754449 l 1.78594,0.006 v 0.87045 c 0,1.3305 0.71345,3.83456 1.63659,5.74413 1.1036,2.28285 4.21831,5.41785 6.51042,6.55284 2.24,1.10919 5.16674,1.73408 7.50334,1.60205 l 1.86837,-0.10557 -0.13156,1.16715 c -0.51216,4.54389 2.00151,9.71551 5.95555,12.25292 2.91116,1.86816 6.90104,2.56483 10.25937,1.79137 z"
       id="path126"
       inkscape:connector-curvature="0" />
  </g>
</svg>
